<svg viewBox="0 0 140 190" fill="none" xmlns="http://www.w3.org/2000/svg">
<path d="M21 5H124C132.86 5 140 12.136 140 21V174C140 182.86 132.86 190 124 190H21C12.136 190 5 182.86 5 174V21C5 12.136 12.136 5 21 5Z" fill="black" fill-opacity="0.49804"/>
<path d="M17 1H120C128.86 1 136 8.136 136 17V170C136 178.86 128.86 186 120 186H17C8.136 186 1 178.86 1 170V17C1 8.136 8.136 1 17 1Z" fill="white"/>
<path d="M19 3H122C130.86 3 138 10.136 138 19V172C138 180.86 130.86 188 122 188H19C10.136 188 3 180.86 3 172V19C3 10.136 10.136 3 19 3Z" fill="#C7891F"/>
<path d="M18 2H121C129.86 2 137 9.136 137 18V171C137 179.86 129.86 187 121 187H18C9.136 187 2 179.86 2 171V18C2 9.136 9.136 2 18 2Z" fill="url(#paint0_linear)"/>
<path d="M22.167 10H116.58C124.71 10 131.25 16.541 131.25 24.667V164.917C131.25 173.037 124.71 179.577 116.58 179.577H22.167C14.041 179.577 7.5 173.037 7.5 164.917V24.667C7.5 16.538 14.041 9.997 22.167 9.997V10Z" fill="#DFBA7C"/>
<path d="M22.156 9.375C13.695 9.375 6.875 16.195 6.875 24.656V164.906C6.875 173.366 13.695 180.216 22.156 180.216H116.59C125.05 180.216 131.88 173.366 131.88 164.906V24.656C131.88 16.191 125.05 9.371 116.59 9.371H22.156V9.375ZM22.156 10.625H116.59C124.38 10.625 130.62 16.866 130.62 24.656V164.906C130.62 172.696 124.38 178.966 116.59 178.966H22.156C14.366 178.966 8.125 172.696 8.125 164.906V24.656C8.125 16.862 14.366 10.621 22.156 10.621V10.625Z" fill="#9F0000"/>
<g filter="url(#filter0_d)">
<path d="M37.6748 90.8C37.6748 92.5 37.0748 93.97 35.8748 95.21C34.6748 96.43 32.9248 97.31 30.6248 97.85C31.8648 98.19 32.8048 98.75 33.4448 99.53C34.0848 100.29 34.4048 101.17 34.4048 102.17C34.4048 103.75 33.9048 105.12 32.9048 106.28C31.9248 107.44 30.4848 108.34 28.5848 108.98C26.6848 109.6 24.3948 109.91 21.7148 109.91C20.7148 109.91 19.9148 109.88 19.3148 109.82C19.2948 110.38 19.0548 110.8 18.5948 111.08C18.1348 111.36 17.5448 111.5 16.8248 111.5C16.1048 111.5 15.6048 111.34 15.3248 111.02C15.0648 110.7 14.9548 110.23 14.9948 109.61C15.1748 106.81 15.5248 103.88 16.0448 100.82C16.5648 97.74 17.2248 94.77 18.0248 91.91C18.1648 91.41 18.4448 91.06 18.8648 90.86C19.2848 90.66 19.8348 90.56 20.5148 90.56C21.7348 90.56 22.3448 90.9 22.3448 91.58C22.3448 91.86 22.2848 92.18 22.1648 92.54C21.6448 94.1 21.1248 96.22 20.6048 98.9C20.0848 101.56 19.7148 104.1 19.4948 106.52C20.4548 106.6 21.2348 106.64 21.8348 106.64C24.6348 106.64 26.6848 106.24 27.9848 105.44C29.3048 104.62 29.9648 103.58 29.9648 102.32C29.9648 101.44 29.5848 100.7 28.8248 100.1C28.0848 99.5 26.8348 99.17 25.0748 99.11C24.6748 99.09 24.3948 98.99 24.2348 98.81C24.0748 98.63 23.9948 98.34 23.9948 97.94C23.9948 97.36 24.1148 96.89 24.3548 96.53C24.5948 96.17 25.0348 95.98 25.6748 95.96C27.0948 95.92 28.3748 95.71 29.5148 95.33C30.6748 94.95 31.5848 94.42 32.2448 93.74C32.9048 93.04 33.2348 92.23 33.2348 91.31C33.2348 90.15 32.6648 89.24 31.5248 88.58C30.3848 87.9 28.6348 87.56 26.2748 87.56C24.1348 87.56 22.0648 87.84 20.0648 88.4C18.0648 88.94 16.3648 89.63 14.9648 90.47C14.3248 90.85 13.7848 91.04 13.3448 91.04C12.9848 91.04 12.7048 90.92 12.5048 90.68C12.3248 90.42 12.2348 90.1 12.2348 89.72C12.2348 89.22 12.3348 88.79 12.5348 88.43C12.7548 88.07 13.2648 87.66 14.0648 87.2C15.7448 86.24 17.7148 85.49 19.9748 84.95C22.2348 84.41 24.5448 84.14 26.9048 84.14C30.5248 84.14 33.2248 84.75 35.0048 85.97C36.7848 87.19 37.6748 88.8 37.6748 90.8ZM40.378 110.15C39.138 110.15 38.148 109.7 37.408 108.8C36.668 107.9 36.298 106.72 36.298 105.26C36.298 103.66 36.668 102.15 37.408 100.73C38.148 99.29 39.128 98.14 40.348 97.28C41.588 96.4 42.898 95.96 44.278 95.96C44.718 95.96 45.008 96.05 45.148 96.23C45.308 96.39 45.438 96.69 45.538 97.13C45.958 97.05 46.398 97.01 46.858 97.01C47.838 97.01 48.328 97.36 48.328 98.06C48.328 98.48 48.178 99.48 47.878 101.06C47.418 103.36 47.188 104.96 47.188 105.86C47.188 106.16 47.258 106.4 47.398 106.58C47.558 106.76 47.758 106.85 47.998 106.85C48.378 106.85 48.838 106.61 49.378 106.13C49.918 105.63 50.648 104.83 51.568 103.73C51.808 103.45 52.078 103.31 52.378 103.31C52.638 103.31 52.838 103.43 52.978 103.67C53.138 103.91 53.218 104.24 53.218 104.66C53.218 105.46 53.028 106.08 52.648 106.52C51.828 107.54 50.958 108.4 50.038 109.1C49.118 109.8 48.228 110.15 47.368 110.15C46.708 110.15 46.098 109.93 45.538 109.49C44.998 109.03 44.588 108.41 44.308 107.63C43.268 109.31 41.958 110.15 40.378 110.15ZM41.458 107.12C41.898 107.12 42.318 106.86 42.718 106.34C43.118 105.82 43.408 105.13 43.588 104.27L44.698 98.75C43.858 98.77 43.078 99.09 42.358 99.71C41.658 100.31 41.098 101.11 40.678 102.11C40.258 103.11 40.048 104.17 40.048 105.29C40.048 105.91 40.168 106.37 40.408 106.67C40.668 106.97 41.018 107.12 41.458 107.12ZM56.5098 110.15C54.5498 110.15 53.0198 109.6 51.9198 108.5C50.8398 107.38 50.2998 105.91 50.2998 104.09C50.2998 102.47 50.6198 101.05 51.2598 99.83C51.8998 98.61 52.7298 97.67 53.7498 97.01C54.7698 96.35 55.8398 96.02 56.9598 96.02C58.0598 96.02 58.9098 96.35 59.5098 97.01C60.1298 97.65 60.4398 98.48 60.4398 99.5C60.4398 100.34 60.2498 101.05 59.8698 101.63C59.5098 102.21 59.0298 102.5 58.4298 102.5C58.0498 102.5 57.7398 102.41 57.4998 102.23C57.2798 102.05 57.1698 101.8 57.1698 101.48C57.1698 101.34 57.1898 101.18 57.2298 101C57.2698 100.82 57.2998 100.69 57.3198 100.61C57.4198 100.31 57.4698 100.03 57.4698 99.77C57.4698 99.51 57.3998 99.31 57.2598 99.17C57.1398 99.03 56.9598 98.96 56.7198 98.96C56.2598 98.96 55.8298 99.17 55.4298 99.59C55.0298 99.99 54.7098 100.54 54.4698 101.24C54.2298 101.94 54.1098 102.71 54.1098 103.55C54.1098 105.87 55.1198 107.03 57.1398 107.03C57.9598 107.03 58.8398 106.76 59.7798 106.22C60.7398 105.66 61.6798 104.83 62.5998 103.73C62.8398 103.45 63.1098 103.31 63.4098 103.31C63.6698 103.31 63.8698 103.43 64.0098 103.67C64.1698 103.91 64.2498 104.24 64.2498 104.66C64.2498 105.42 64.0598 106.04 63.6798 106.52C62.7398 107.68 61.6098 108.58 60.2898 109.22C58.9898 109.84 57.7298 110.15 56.5098 110.15ZM67.5548 110.15C65.5948 110.15 64.0648 109.6 62.9648 108.5C61.8848 107.38 61.3448 105.91 61.3448 104.09C61.3448 102.47 61.6648 101.05 62.3048 99.83C62.9448 98.61 63.7748 97.67 64.7948 97.01C65.8148 96.35 66.8848 96.02 68.0048 96.02C69.1048 96.02 69.9548 96.35 70.5548 97.01C71.1748 97.65 71.4848 98.48 71.4848 99.5C71.4848 100.34 71.2948 101.05 70.9148 101.63C70.5548 102.21 70.0748 102.5 69.4748 102.5C69.0948 102.5 68.7848 102.41 68.5448 102.23C68.3248 102.05 68.2148 101.8 68.2148 101.48C68.2148 101.34 68.2348 101.18 68.2748 101C68.3148 100.82 68.3448 100.69 68.3648 100.61C68.4648 100.31 68.5148 100.03 68.5148 99.77C68.5148 99.51 68.4448 99.31 68.3048 99.17C68.1848 99.03 68.0048 98.96 67.7648 98.96C67.3048 98.96 66.8748 99.17 66.4748 99.59C66.0748 99.99 65.7548 100.54 65.5148 101.24C65.2748 101.94 65.1548 102.71 65.1548 103.55C65.1548 105.87 66.1648 107.03 68.1848 107.03C69.0048 107.03 69.8848 106.76 70.8248 106.22C71.7848 105.66 72.7248 104.83 73.6448 103.73C73.8848 103.45 74.1548 103.31 74.4548 103.31C74.7148 103.31 74.9148 103.43 75.0548 103.67C75.2148 103.91 75.2948 104.24 75.2948 104.66C75.2948 105.42 75.1048 106.04 74.7248 106.52C73.7848 107.68 72.6548 108.58 71.3348 109.22C70.0348 109.84 68.7748 110.15 67.5548 110.15ZM76.2667 110.15C75.0267 110.15 74.0367 109.7 73.2967 108.8C72.5567 107.9 72.1867 106.72 72.1867 105.26C72.1867 103.66 72.5567 102.15 73.2967 100.73C74.0367 99.29 75.0167 98.14 76.2367 97.28C77.4767 96.4 78.7867 95.96 80.1667 95.96C80.6067 95.96 80.8967 96.05 81.0367 96.23C81.1967 96.39 81.3267 96.69 81.4267 97.13C81.8467 97.05 82.2867 97.01 82.7467 97.01C83.7267 97.01 84.2167 97.36 84.2167 98.06C84.2167 98.48 84.0667 99.48 83.7667 101.06C83.3067 103.36 83.0767 104.96 83.0767 105.86C83.0767 106.16 83.1467 106.4 83.2867 106.58C83.4467 106.76 83.6467 106.85 83.8867 106.85C84.2667 106.85 84.7267 106.61 85.2667 106.13C85.8067 105.63 86.5367 104.83 87.4567 103.73C87.6967 103.45 87.9667 103.31 88.2667 103.31C88.5267 103.31 88.7267 103.43 88.8667 103.67C89.0267 103.91 89.1067 104.24 89.1067 104.66C89.1067 105.46 88.9167 106.08 88.5367 106.52C87.7167 107.54 86.8467 108.4 85.9267 109.1C85.0067 109.8 84.1167 110.15 83.2567 110.15C82.5967 110.15 81.9867 109.93 81.4267 109.49C80.8867 109.03 80.4767 108.41 80.1967 107.63C79.1567 109.31 77.8467 110.15 76.2667 110.15ZM77.3467 107.12C77.7867 107.12 78.2067 106.86 78.6067 106.34C79.0067 105.82 79.2967 105.13 79.4767 104.27L80.5867 98.75C79.7467 98.77 78.9667 99.09 78.2467 99.71C77.5467 100.31 76.9867 101.11 76.5667 102.11C76.1467 103.11 75.9367 104.17 75.9367 105.29C75.9367 105.91 76.0567 106.37 76.2967 106.67C76.5567 106.97 76.9067 107.12 77.3467 107.12ZM88.7985 110.15C88.0385 110.15 87.4985 109.75 87.1785 108.95C86.8785 108.15 86.7285 106.87 86.7285 105.11C86.7285 102.51 87.0985 100.04 87.8385 97.7C88.0185 97.12 88.3085 96.7 88.7085 96.44C89.1285 96.16 89.7085 96.02 90.4485 96.02C90.8485 96.02 91.1285 96.07 91.2885 96.17C91.4485 96.27 91.5285 96.46 91.5285 96.74C91.5285 97.06 91.3785 97.78 91.0785 98.9C90.8785 99.7 90.7185 100.4 90.5985 101C90.4785 101.6 90.3785 102.34 90.2985 103.22C90.9585 101.5 91.6985 100.1 92.5185 99.02C93.3385 97.94 94.1385 97.17 94.9185 96.71C95.7185 96.25 96.4485 96.02 97.1085 96.02C98.4085 96.02 99.0585 96.67 99.0585 97.97C99.0585 98.23 98.9685 98.86 98.7885 99.86C98.6285 100.66 98.5485 101.16 98.5485 101.36C98.5485 102.06 98.7985 102.41 99.2985 102.41C99.8585 102.41 100.579 101.97 101.459 101.09C101.719 100.83 101.989 100.7 102.269 100.7C102.529 100.7 102.729 100.82 102.869 101.06C103.029 101.28 103.109 101.58 103.109 101.96C103.109 102.7 102.909 103.28 102.509 103.7C101.949 104.28 101.289 104.78 100.529 105.2C99.7885 105.6 98.9985 105.8 98.1585 105.8C97.0985 105.8 96.2885 105.53 95.7285 104.99C95.1885 104.45 94.9185 103.72 94.9185 102.8C94.9185 102.5 94.9485 102.2 95.0085 101.9C95.0485 101.5 95.0685 101.23 95.0685 101.09C95.0685 100.77 94.9585 100.61 94.7385 100.61C94.4385 100.61 94.0385 100.95 93.5385 101.63C93.0585 102.29 92.5785 103.17 92.0985 104.27C91.6185 105.37 91.2285 106.53 90.9285 107.75C90.7085 108.69 90.4485 109.33 90.1485 109.67C89.8685 109.99 89.4185 110.15 88.7985 110.15ZM104.011 110.15C102.771 110.15 101.781 109.7 101.041 108.8C100.301 107.9 99.9309 106.72 99.9309 105.26C99.9309 103.66 100.301 102.15 101.041 100.73C101.781 99.29 102.761 98.14 103.981 97.28C105.221 96.4 106.531 95.96 107.911 95.96C108.351 95.96 108.641 96.05 108.781 96.23C108.941 96.39 109.071 96.69 109.171 97.13C109.591 97.05 110.031 97.01 110.491 97.01C111.471 97.01 111.961 97.36 111.961 98.06C111.961 98.48 111.811 99.48 111.511 101.06C111.051 103.36 110.821 104.96 110.821 105.86C110.821 106.16 110.891 106.4 111.031 106.58C111.191 106.76 111.391 106.85 111.631 106.85C112.011 106.85 112.471 106.61 113.011 106.13C113.551 105.63 114.281 104.83 115.201 103.73C115.441 103.45 115.711 103.31 116.011 103.31C116.271 103.31 116.471 103.43 116.611 103.67C116.771 103.91 116.851 104.24 116.851 104.66C116.851 105.46 116.661 106.08 116.281 106.52C115.461 107.54 114.591 108.4 113.671 109.1C112.751 109.8 111.861 110.15 111.001 110.15C110.341 110.15 109.731 109.93 109.171 109.49C108.631 109.03 108.221 108.41 107.941 107.63C106.901 109.31 105.591 110.15 104.011 110.15ZM105.091 107.12C105.531 107.12 105.951 106.86 106.351 106.34C106.751 105.82 107.041 105.13 107.221 104.27L108.331 98.75C107.491 98.77 106.711 99.09 105.991 99.71C105.291 100.31 104.731 101.11 104.311 102.11C103.891 103.11 103.681 104.17 103.681 105.29C103.681 105.91 103.801 106.37 104.041 106.67C104.301 106.97 104.651 107.12 105.091 107.12ZM119.363 98.87C119.323 99.87 119.303 100.65 119.303 101.21C119.303 102.65 119.373 103.78 119.513 104.6C119.673 105.4 119.923 105.98 120.263 106.34C120.623 106.68 121.113 106.85 121.733 106.85C122.053 106.85 122.433 106.75 122.873 106.55C123.313 106.35 123.713 106.09 124.073 105.77C124.293 105.57 124.513 105.47 124.733 105.47C124.973 105.47 125.163 105.61 125.303 105.89C125.463 106.15 125.543 106.47 125.543 106.85C125.543 107.23 125.463 107.6 125.303 107.96C125.163 108.32 124.943 108.62 124.643 108.86C123.603 109.72 122.423 110.15 121.103 110.15C119.203 110.15 117.813 109.36 116.933 107.78C116.053 106.18 115.613 104.1 115.613 101.54C115.613 100.66 115.643 99.77 115.703 98.87H114.533C113.933 98.87 113.523 98.76 113.303 98.54C113.103 98.32 113.003 97.97 113.003 97.49C113.003 96.37 113.453 95.81 114.353 95.81H116.063C116.403 93.61 116.923 91.6 117.623 89.78C118.323 87.96 119.163 86.51 120.143 85.43C121.143 84.35 122.213 83.81 123.353 83.81C124.193 83.81 124.853 84.18 125.333 84.92C125.813 85.66 126.053 86.59 126.053 87.71C126.053 90.81 124.753 93.51 122.153 95.81H125.513C125.833 95.81 126.063 95.88 126.203 96.02C126.343 96.16 126.413 96.42 126.413 96.8C126.413 98.18 125.283 98.87 123.023 98.87H119.363ZM122.543 86.69C122.243 86.69 121.903 87.07 121.523 87.83C121.163 88.57 120.813 89.61 120.473 90.95C120.153 92.27 119.883 93.74 119.663 95.36C120.843 94.34 121.723 93.2 122.303 91.94C122.903 90.66 123.203 89.5 123.203 88.46C123.203 87.28 122.983 86.69 122.543 86.69Z" fill="#FFFFE2"/>
</g>
<g filter="url(#filter1_d)">
<path fill-rule="evenodd" clip-rule="evenodd" d="M33.34 30C29.214 38.245 26.205 42.498 20 47.04C25.872 51.527 30.013 56.164 33.46 63.66C36.539 56.539 40.307 51.23 46.85 46.817C40.268 43.468 36.457 38.163 33.34 30V30Z" fill="#FFFFE2"/>
</g>
<g filter="url(#filter2_d)">
<path fill-rule="evenodd" clip-rule="evenodd" d="M99.4815 126.506C98.6774 126.51 97.7941 126.707 96.8191 127.148C86.1758 135.345 100.523 148.57 106.582 159.924L106.76 159.982C113.417 147.571 126.093 133.914 116.406 127.148C108.735 123.685 106.684 135.207 106.614 135.622C106.551 135.257 104.984 126.468 99.4815 126.506Z" fill="#FFFFE2"/>
</g>
<g filter="url(#filter3_d)">
<path fill-rule="evenodd" clip-rule="evenodd" d="M33.5764 126.5C28.6464 134.324 13.5364 147.647 23.1164 151.763C28.9264 153.655 31.6864 149.779 32.8564 147.214H33.0964L29.2363 160.16L38.1763 160.12C38.1763 160.12 34.3264 147.675 34.3164 147.202H34.4064C35.3564 149.298 38.9463 153.639 42.8963 151.988C54.4363 147.35 37.4364 134.163 33.5764 126.5V126.5Z" fill="#FFFFE2"/>
</g>
<g filter="url(#filter4_d)">
<path fill-rule="evenodd" clip-rule="evenodd" d="M106.457 30C103.791 30 101.627 33.264 101.627 37.286C101.627 40.713 106.019 46.478 105.849 49.216C104.439 49.998 100.082 42.778 97.83 42.778C95.163 42.778 93 46.042 93 50.064C93 54.086 95.163 57.35 97.83 57.35C100.142 57.35 104.106 50.136 105.849 50.787L102.92 63.66L109.944 63.619C109.944 63.619 106.867 51.138 106.863 50.842H106.918V50.856C108.625 50.217 112.724 57.489 115.02 57.489C117.687 57.489 119.85 54.225 119.85 50.203C119.85 46.181 117.687 42.917 115.02 42.917C112.778 42.917 108.712 50.018 106.927 49.285C106.952 46.48 111.287 40.709 111.287 37.286C111.287 33.264 109.124 30 106.457 30V30Z" fill="#FFFFE2"/>
</g>
<defs>
<filter id="filter0_d" x="8.23477" y="83.81" width="122.178" height="35.69" filterUnits="userSpaceOnUse" color-interpolation-filters="sRGB">
<feFlood flood-opacity="0" result="BackgroundImageFix"/>
<feColorMatrix in="SourceAlpha" type="matrix" values="0 0 0 0 0 0 0 0 0 0 0 0 0 0 0 0 0 0 127 0"/>
<feOffset dy="4"/>
<feGaussianBlur stdDeviation="2"/>
<feColorMatrix type="matrix" values="0 0 0 0 0 0 0 0 0 0 0 0 0 0 0 0 0 0 0.25 0"/>
<feBlend mode="normal" in2="BackgroundImageFix" result="effect1_dropShadow"/>
<feBlend mode="normal" in="SourceGraphic" in2="effect1_dropShadow" result="shape"/>
</filter>
<filter id="filter1_d" x="16" y="30" width="34.85" height="41.66" filterUnits="userSpaceOnUse" color-interpolation-filters="sRGB">
<feFlood flood-opacity="0" result="BackgroundImageFix"/>
<feColorMatrix in="SourceAlpha" type="matrix" values="0 0 0 0 0 0 0 0 0 0 0 0 0 0 0 0 0 0 127 0"/>
<feOffset dy="4"/>
<feGaussianBlur stdDeviation="2"/>
<feColorMatrix type="matrix" values="0 0 0 0 0 0 0 0 0 0 0 0 0 0 0 0 0 0 0.25 0"/>
<feBlend mode="normal" in2="BackgroundImageFix" result="effect1_dropShadow"/>
<feBlend mode="normal" in="SourceGraphic" in2="effect1_dropShadow" result="shape"/>
</filter>
<filter id="filter2_d" x="89" y="126.5" width="34.9253" height="41.4825" filterUnits="userSpaceOnUse" color-interpolation-filters="sRGB">
<feFlood flood-opacity="0" result="BackgroundImageFix"/>
<feColorMatrix in="SourceAlpha" type="matrix" values="0 0 0 0 0 0 0 0 0 0 0 0 0 0 0 0 0 0 127 0"/>
<feOffset dy="4"/>
<feGaussianBlur stdDeviation="2"/>
<feColorMatrix type="matrix" values="0 0 0 0 0 0 0 0 0 0 0 0 0 0 0 0 0 0 0.25 0"/>
<feBlend mode="normal" in2="BackgroundImageFix" result="effect1_dropShadow"/>
<feBlend mode="normal" in="SourceGraphic" in2="effect1_dropShadow" result="shape"/>
</filter>
<filter id="filter3_d" x="16" y="126.5" width="34.852" height="41.66" filterUnits="userSpaceOnUse" color-interpolation-filters="sRGB">
<feFlood flood-opacity="0" result="BackgroundImageFix"/>
<feColorMatrix in="SourceAlpha" type="matrix" values="0 0 0 0 0 0 0 0 0 0 0 0 0 0 0 0 0 0 127 0"/>
<feOffset dy="4"/>
<feGaussianBlur stdDeviation="2"/>
<feColorMatrix type="matrix" values="0 0 0 0 0 0 0 0 0 0 0 0 0 0 0 0 0 0 0.25 0"/>
<feBlend mode="normal" in2="BackgroundImageFix" result="effect1_dropShadow"/>
<feBlend mode="normal" in="SourceGraphic" in2="effect1_dropShadow" result="shape"/>
</filter>
<filter id="filter4_d" x="89" y="30" width="34.85" height="41.66" filterUnits="userSpaceOnUse" color-interpolation-filters="sRGB">
<feFlood flood-opacity="0" result="BackgroundImageFix"/>
<feColorMatrix in="SourceAlpha" type="matrix" values="0 0 0 0 0 0 0 0 0 0 0 0 0 0 0 0 0 0 127 0"/>
<feOffset dy="4"/>
<feGaussianBlur stdDeviation="2"/>
<feColorMatrix type="matrix" values="0 0 0 0 0 0 0 0 0 0 0 0 0 0 0 0 0 0 0.25 0"/>
<feBlend mode="normal" in2="BackgroundImageFix" result="effect1_dropShadow"/>
<feBlend mode="normal" in="SourceGraphic" in2="effect1_dropShadow" result="shape"/>
</filter>
<linearGradient id="paint0_linear" x1="2" y1="62.1" x2="109" y2="127.7" gradientUnits="userSpaceOnUse">
<stop stop-color="#EBF0D0"/>
<stop offset="1" stop-color="#FFFFEB"/>
</linearGradient>
</defs>
</svg>
